<svg xmlns="http://www.w3.org/2000/svg" width="181.781" height="39.869" viewBox="0 0 181.781 39.869"><defs><style>.a{fill:#324640;}</style></defs><path class="a" d="M148.863,443.96a3.864,3.864,0,0,1,3.942-3.856,3.944,3.944,0,0,1,3.015,1.395l20.96,24.511V444.07a3.962,3.962,0,0,1,3.966-3.966,3.911,3.911,0,0,1,3.966,3.866V475.9a3.924,3.924,0,0,1-3.966,3.862,4,4,0,0,1-3.045-1.4l-20.907-24.651V475.8a3.957,3.957,0,0,1-3.964,3.966,3.908,3.908,0,0,1-3.966-3.862Z" transform="translate(-148.863 -440.001)"/><path class="a" d="M190.257,448.036v6.823h14.327a3.959,3.959,0,0,1,3.966,3.966,3.914,3.914,0,0,1-3.966,3.91H190.257v9.1H206.7a3.965,3.965,0,1,1,0,7.93H186.291a3.907,3.907,0,0,1-3.966-3.862V443.97a3.909,3.909,0,0,1,3.966-3.866H206.7a3.966,3.966,0,1,1,0,7.932Z" transform="translate(-129.115 -440.001)"/><path class="a" d="M241.549,440.142a3.891,3.891,0,0,1,3.983,3.8v31.827a3.993,3.993,0,0,1-7.984-.1V453.6l-7.215,8.245a3.9,3.9,0,0,1-5.981,0l-7.32-8.352V475.67a3.962,3.962,0,0,1-3.966,3.966,3.909,3.909,0,0,1-3.966-3.863v-31.93a3.834,3.834,0,0,1,3.929-3.8,4.063,4.063,0,0,1,3.023,1.333l11.29,12.926,11.184-12.82A4.063,4.063,0,0,1,241.549,440.142Z" transform="translate(-113.312 -440.039)"/><path class="a" d="M244.168,479.869a3.935,3.935,0,0,1-3.966-3.862,3.534,3.534,0,0,1,.321-1.577l14.367-32A3.89,3.89,0,0,1,258.5,440.1a3.954,3.954,0,0,1,3.659,2.323l14.275,32.034s.309,1.407.309,1.546a3.83,3.83,0,0,1-3.912,3.862,4.053,4.053,0,0,1-3.657-2.376l-2.188-5.03H249.961l-2.191,5.03A3.977,3.977,0,0,1,244.168,479.869Zm9.271-14.858h10.069L258.5,453.482Z" transform="translate(-94.958 -440.001)"/></svg>