<svg width="100%" height="100%" viewBox="0 0 335 335" version="1.1"
  xmlns="http://www.w3.org/2000/svg"
  xmlns:xlink="http://www.w3.org/1999/xlink" xml:space="preserve"
  xmlns:serif="http://www.serif.com/" style="fill-rule:evenodd;clip-rule:evenodd;stroke-linejoin:round;stroke-miterlimit:2;">
  <g transform="matrix(1,0,0,1,-792.971,-372.971)">
    <path d="M1127.03,372.971L792.971,372.971L792.971,707.029L1127.03,707.029L1127.03,372.971ZM941.111,575.772L1021.07,447.753C1028.89,435.24 1045.39,431.426 1057.9,439.242C1070.42,447.057 1074.23,463.562 1066.41,476.075L968.871,632.247C963.793,640.377 955.048,644.835 946.113,644.817C939.355,644.821 932.591,642.281 927.388,637.182L857.541,568.726C847.005,558.399 846.834,541.461 857.161,530.924C867.488,520.387 884.427,520.217 894.963,530.544L941.111,575.772Z" style="fill:rgb(65,195,169);"/>
  </g>
</svg>
